<svg xmlns="http://www.w3.org/2000/svg" viewBox="0 0 100 130">
  <defs>
    <linearGradient id="faceL" x1="0" y1="0" x2="1" y2="0.8">
      <stop offset="0%" stop-color="#c8e8ff"/>
      <stop offset="50%" stop-color="#4a9ad4"/>
      <stop offset="100%" stop-color="#1a5080"/>
    </linearGradient>
    <linearGradient id="faceR" x1="1" y1="0" x2="0" y2="0.8">
      <stop offset="0%" stop-color="#7ac0ec"/>
      <stop offset="50%" stop-color="#2868a0"/>
      <stop offset="100%" stop-color="#0c2e50"/>
    </linearGradient>
    <linearGradient id="faceT" x1="0.5" y1="0" x2="0.5" y2="1">
      <stop offset="0%" stop-color="#f0f8ff"/>
      <stop offset="100%" stop-color="#60a8d8"/>
    </linearGradient>
    <linearGradient id="faceBL" x1="0" y1="0" x2="1" y2="1">
      <stop offset="0%" stop-color="#2a6898"/>
      <stop offset="100%" stop-color="#081830"/>
    </linearGradient>
    <linearGradient id="faceBR" x1="1" y1="0" x2="0" y2="1">
      <stop offset="0%" stop-color="#1a4a78"/>
      <stop offset="100%" stop-color="#040e20"/>
    </linearGradient>
    <linearGradient id="innerL" x1="0" y1="0" x2="0.5" y2="1">
      <stop offset="0%" stop-color="#90d0f0"/>
      <stop offset="100%" stop-color="#3080b8"/>
    </linearGradient>
    <linearGradient id="innerR" x1="1" y1="0" x2="0.5" y2="1">
      <stop offset="0%" stop-color="#68b4dc"/>
      <stop offset="100%" stop-color="#1a5888"/>
    </linearGradient>
    <linearGradient id="subL" x1="0" y1="0" x2="1" y2="1">
      <stop offset="0%" stop-color="#a0d8ff"/>
      <stop offset="100%" stop-color="#1a4a78"/>
    </linearGradient>
    <linearGradient id="subR" x1="1" y1="0" x2="0" y2="1">
      <stop offset="0%" stop-color="#80c0e8"/>
      <stop offset="100%" stop-color="#0c2e50"/>
    </linearGradient>
    <linearGradient id="subDark" x1="0.5" y1="0" x2="0.5" y2="1">
      <stop offset="0%" stop-color="#2a5a88"/>
      <stop offset="100%" stop-color="#061020"/>
    </linearGradient>
    <filter id="outerGlow">
      <feGaussianBlur stdDeviation="5" result="blur"/>
      <feComposite in="blur" in2="SourceGraphic" operator="over"/>
    </filter>
    <filter id="sparkleGlow">
      <feGaussianBlur stdDeviation="1.5" result="blur"/>
      <feMerge><feMergeNode in="blur"/><feMergeNode in="SourceGraphic"/></feMerge>
    </filter>
  </defs>

  <g>
    <!-- Ambient glow -->
    <ellipse cx="50" cy="68" rx="34" ry="48" fill="rgba(60,140,220,0.12)" filter="url(#outerGlow)"/>

    <!-- Sub-crystal: bottom-left -->
    <polygon points="26,68 18,82 24,88 30,80" fill="url(#subL)"/>
    <polygon points="26,68 30,80 34,84 32,72" fill="url(#subR)"/>
    <polygon points="24,88 30,80 34,84" fill="url(#subDark)"/>
    <circle cx="26" cy="76" r="1.2" fill="white" filter="url(#sparkleGlow)" opacity="0.5"/>

    <!-- Sub-crystal: bottom-right -->
    <polygon points="74,65 80,78 74,86 68,76" fill="url(#subR)"/>
    <polygon points="74,65 68,76 64,82 66,70" fill="url(#subL)"/>
    <polygon points="74,86 68,76 64,82" fill="url(#subDark)"/>
    <circle cx="72" cy="74" r="1" fill="white" filter="url(#sparkleGlow)" opacity="0.5"/>

    <!-- Sub-crystal: upper-left -->
    <polygon points="22,42 16,54 22,58 26,50" fill="url(#subL)" opacity="0.9"/>
    <polygon points="22,42 26,50 28,54 26,44" fill="url(#subR)" opacity="0.9"/>
    <polygon points="22,58 26,50 28,54" fill="url(#subDark)" opacity="0.8"/>

    <!-- Sub-crystal: upper-right -->
    <polygon points="76,40 80,50 76,54 72,48" fill="url(#subR)" opacity="0.85"/>
    <polygon points="76,40 72,48 70,52 72,42" fill="url(#subL)" opacity="0.85"/>
    <polygon points="76,54 72,48 70,52" fill="url(#subDark)" opacity="0.75"/>

    <!-- Sub-crystal: front-bottom -->
    <polygon points="44,92 40,102 46,106 48,98" fill="url(#subL)" opacity="0.8"/>
    <polygon points="44,92 48,98 52,104 50,94" fill="url(#subR)" opacity="0.8"/>
    <polygon points="46,106 48,98 52,104" fill="url(#subDark)" opacity="0.7"/>

    <!-- Main crystal body -->
    <polygon points="50,112 22,58 34,62 50,74" fill="url(#faceBL)"/>
    <polygon points="50,112 78,58 66,62 50,74" fill="url(#faceBR)"/>
    <polygon points="50,10 22,58 34,62 50,74" fill="url(#faceL)"/>
    <polygon points="50,10 78,58 66,62 50,74" fill="url(#faceR)"/>
    <polygon points="50,10 36,30 50,26 64,30" fill="url(#faceT)"/>
    <polygon points="34,62 50,74 36,30 22,58" fill="url(#innerL)" opacity="0.35"/>
    <polygon points="66,62 50,74 64,30 78,58" fill="url(#innerR)" opacity="0.25"/>
    <polygon points="22,58 34,62 50,56 66,62 78,58 50,52" fill="white" opacity="0.07"/>

    <!-- Internal refraction lines -->
    <line x1="50" y1="10" x2="50" y2="74" stroke="rgba(200,220,255,0.15)" stroke-width="0.5"/>
    <line x1="36" y1="30" x2="66" y2="62" stroke="rgba(180,200,255,0.08)" stroke-width="0.4"/>
    <line x1="64" y1="30" x2="34" y2="62" stroke="rgba(180,200,255,0.08)" stroke-width="0.4"/>

    <!-- Edge highlights -->
    <polyline points="50,10 22,58 50,112" fill="none" stroke="rgba(180,220,255,0.35)" stroke-width="0.8"/>
    <polyline points="50,10 78,58 50,112" fill="none" stroke="rgba(140,190,240,0.2)" stroke-width="0.6"/>

    <!-- Specular reflections -->
    <polygon points="40,18 50,12 54,26 46,34" fill="white" opacity="0.45"/>
    <polygon points="26,46 32,36 36,50 30,56" fill="rgba(220,230,255,0.3)" opacity="0.3"/>
    <polygon points="62,38 68,46 64,54 58,44" fill="rgba(200,180,255,0.2)" opacity="0.2"/>

    <!-- Sparkle dots -->
    <circle cx="42" cy="40" r="1.5" fill="white" filter="url(#sparkleGlow)" opacity="0.6"/>
    <circle cx="58" cy="36" r="1.2" fill="white" filter="url(#sparkleGlow)" opacity="0.5"/>
    <circle cx="32" cy="62" r="1" fill="rgba(200,180,255,0.9)" filter="url(#sparkleGlow)" opacity="0.5"/>
    <circle cx="64" cy="66" r="0.8" fill="rgba(160,200,255,0.8)" opacity="0.4"/>
    <circle cx="46" cy="28" r="0.8" fill="white" opacity="0.7"/>

    <!-- Star sparkles -->
    <g transform="translate(58,18)" filter="url(#sparkleGlow)" opacity="0.7">
      <line x1="-4" y1="0" x2="4" y2="0" stroke="white" stroke-width="1.2"/>
      <line x1="0" y1="-4" x2="0" y2="4" stroke="white" stroke-width="1.2"/>
      <line x1="-2.5" y1="-2.5" x2="2.5" y2="2.5" stroke="white" stroke-width="0.7"/>
      <line x1="2.5" y1="-2.5" x2="-2.5" y2="2.5" stroke="white" stroke-width="0.7"/>
    </g>
    <g transform="translate(28,52)" filter="url(#sparkleGlow)" opacity="0.6">
      <line x1="-3" y1="0" x2="3" y2="0" stroke="rgba(200,180,255,1)" stroke-width="1"/>
      <line x1="0" y1="-3" x2="0" y2="3" stroke="rgba(200,180,255,1)" stroke-width="1"/>
    </g>
  </g>
</svg>
