<svg xmlns="http://www.w3.org/2000/svg" viewBox="0 0 24 24" width="24" height="24">
  <defs>
    <linearGradient id="g" x1="0" y1="0" x2="1" y2="1">
      <stop offset="0%" stop-color="#3ab8c8"/>
      <stop offset="100%" stop-color="#c8922a"/>
    </linearGradient>
  </defs>
  <path d="M3 8h4l4 4-4 4H3" fill="none" stroke="url(#g)" stroke-width="2" stroke-linecap="round" stroke-linejoin="round"/>
  <path d="M3 16h4l4-4-4-4" fill="none" stroke="url(#g)" stroke-width="2" stroke-linecap="round" stroke-linejoin="round" opacity="0"/>
  <path d="M15 8h2l3 4-3 4h-2" fill="none" stroke="url(#g)" stroke-width="2" stroke-linecap="round" stroke-linejoin="round"/>
  <path d="M15 16h2l3-4-3-4h-2" fill="none" stroke="url(#g)" stroke-width="2" stroke-linecap="round" stroke-linejoin="round" opacity="0"/>
  <path d="M3 8 C7 8, 8 10, 12 12 C16 14, 17 16, 21 16" fill="none" stroke="url(#g)" stroke-width="2" stroke-linecap="round"/>
  <path d="M3 16 C7 16, 8 14, 12 12 C16 10, 17 8, 21 8" fill="none" stroke="url(#g)" stroke-width="2" stroke-linecap="round"/>
  <path d="M19 6 L21 8 L19 10" fill="none" stroke="url(#g)" stroke-width="2" stroke-linecap="round" stroke-linejoin="round"/>
  <path d="M19 14 L21 16 L19 18" fill="none" stroke="url(#g)" stroke-width="2" stroke-linecap="round" stroke-linejoin="round"/>
</svg>
