<svg xmlns="http://www.w3.org/2000/svg" viewBox="0 0 28 28">
  <defs>
    <linearGradient id="grad" x1="0" y1="0" x2="1" y2="1">
      <stop offset="0%" stop-color="#3ab8c8"/>
      <stop offset="100%" stop-color="#c8922a"/>
    </linearGradient>
  </defs>
  <!-- 3D shadow layers -->
  <path d="M14 5v10.55A4 4 0 1 0 16 19V9h4V5h-6z" fill="rgba(0,0,0,0.95)" transform="translate(0, 4)"/>
  <path d="M14 5v10.55A4 4 0 1 0 16 19V9h4V5h-6z" fill="rgba(0,0,0,0.8)" transform="translate(0, 3)"/>
  <path d="M14 5v10.55A4 4 0 1 0 16 19V9h4V5h-6z" fill="rgba(0,0,0,0.6)" transform="translate(0, 2)"/>
  <path d="M14 5v10.55A4 4 0 1 0 16 19V9h4V5h-6z" fill="rgba(0,0,0,0.4)" transform="translate(0, 1)"/>
  <!-- Main shape with teal-to-gold gradient -->
  <path d="M14 5v10.55A4 4 0 1 0 16 19V9h4V5h-6z" fill="url(#grad)" stroke="rgba(0,0,0,0.6)" stroke-width="0.8"/>
</svg>